#!OML:ASF F:\VICON\USERDATA\INSTALL\rory3\rory3.ASF
:FULLY-SPECIFIED
:DEGREES
188
root -0.940009 17.5657 5.95167 181.841 -1.36215 -177.624
lowerback 31.3594 -1.78403 3.40486
upperback 4.84395 -2.39413 4.90756
thorax -10.8164 -1.92125 4.43485
lowerneck -13.5472 -3.49791 -0.538433
upperneck 21.9867 -3.58635 -1.87252
head 9.10797 -1.66616 -0.928376
rclavicle 5.76476e-014 -7.95139e-016
rhumerus -4.64695 3.97317 -87.8985
rradius 72.9893
rwrist -18.2722
rhand -17.0282 2.62085
rfingers 7.12502
rthumb 9.20816 -27.1581
lclavicle 5.76476e-014 -7.95139e-016
lhumerus -10.4715 -14.5579 108.109
lradius 67.128
lwrist 59.5306
lhand -27.0868 70.9542
lfingers 7.12502
lthumb -0.50392 -100.933
rfemur -13.58 2.39939 24.9509
rtibia 42.2288
rfoot -25.3362 -17.1378
rtoes 1.98079
lfemur -34.4514 5.52346 -21.0787
ltibia 30.3657
lfoot -7.52603 14.3738
ltoes -5.13171
189
root -0.94565 17.5597 5.86148 181.733 -1.94003 -177.413
lowerback 30.9993 -1.79765 3.57982
upperback 4.76847 -2.32147 4.95352
thorax -10.7553 -1.87562 4.34645
lowerneck -13.6199 -3.62279 -0.492365
upperneck 22.007 -3.71573 -2.08391
head 9.12168 -1.74411 -1.02451
rclavicle 1.70955e-014 4.05521e-014
rhumerus -4.78472 3.80109 -87.7892
rradius 74.1285
rwrist -17.8137
rhand -17.6687 2.81057
rfingers 7.12502
rthumb 8.5901 -26.9947
lclavicle 1.70955e-014 4.05521e-014
lhumerus -10.5138 -14.756 108.281
lradius 67.5323
lwrist 58.1408
lhand -25.4127 68.7621
lfingers 7.12502
lthumb 1.11296 -98.7389
rfemur -12.9388 2.21917 25.2367
rtibia 41.9862
rfoot -25.5831 -17.4724
rtoes 1.95521
lfemur -34.4472 5.44935 -20.8883
ltibia 30.7828
lfoot -6.95755 13.917
ltoes -6.78023
190
root -0.955657 17.559 5.77304 181.491 -2.51523 -177.412
lowerback 30.7344 -1.79704 3.50769
upperback 4.79457 -2.34134 5.0123
thorax -10.6124 -1.87733 4.4397
lowerneck -13.8015 -3.67447 -0.586444
upperneck 22.0278 -3.71681 -2.28038
head 9.16094 -1.7744 -1.08008
rclavicle 5.52621e-014 -7.87187e-014
rhumerus -4.72787 3.88105 -87.6053
rradius 75.3147
rwrist -17.3895
rhand -18.0647 2.90208
rfingers 7.12502
rthumb 8.20786 -26.9185
lclavicle 5.52621e-014 -7.87187e-014
lhumerus -10.0549 -14.7748 108.292
lradius 67.6654
lwrist 56.7184
lhand -23.1319 67.0706
lfingers 7.12502
lthumb 3.31568 -97.0246
rfemur -12.1443 1.88498 25.2376
rtibia 41.7471
rfoot -25.7219 -17.531
rtoes 1.89612
lfemur -34.2993 5.31837 -20.9685
ltibia 31.2199
lfoot -7.14107 13.4077
ltoes -4.35235
191
root -0.963408 17.5579 5.68538 181.312 -2.90693 -177.591
lowerback 30.2615 -1.6765 3.11581
upperback 5.22184 -2.3263 4.87564
thorax -10.6273 -1.80709 4.80445
lowerneck -13.6668 -3.67616 -0.652039
upperneck 21.6447 -3.68221 -2.48645
head 9.00128 -1.79343 -1.12731
rclavicle 1.70955e-014 -1.59028e-015
rhumerus -4.597 4.05793 -87.473
rradius 76.5271
rwrist -17.0047
rhand -18.6787 3.26916
rfingers 7.12502
rthumb 7.61532 -26.5737
lclavicle 1.70955e-014 -1.59028e-015
lhumerus -9.55245 -14.7635 108.147
lradius 67.839
lwrist 55.2947
lhand -20.3483 65.6255
lfingers 7.12502
lthumb 6.00359 -95.5205
rfemur -11.421 1.70474 25.0533
rtibia 41.5398
rfoot -25.8582 -17.4876
rtoes 2.12674
lfemur -34.1213 5.3762 -21.2557
ltibia 31.6569
lfoot -6.11346 12.2063
ltoes -8.43016
192
root -0.969117 17.5537 5.60443 181.073 -3.01665 -177.476
lowerback 30.0515 -1.53135 3.05043
upperback 5.23428 -2.15581 4.87424
thorax -10.5169 -1.72204 4.75861
lowerneck -13.6656 -3.80089 -1.02443
upperneck 21.5713 -3.82013 -2.28561
head 8.98835 -1.86844 -1.01274
rclavicle 1.27222e-014 8.18993e-014
rhumerus -4.52796 4.17845 -87.446
rradius 77.7704
rwrist -16.8631
rhand -19.2466 3.73878
rfingers 7.12502
rthumb 7.06708 -26.1232
lclavicle 1.27222e-014 8.18993e-014
lhumerus -9.07536 -15.2368 107.744
lradius 68.0302
lwrist 54.4257
lhand -18.0868 63.7488
lfingers 7.12502
lthumb 8.18655 -93.5702
rfemur -10.7148 1.87225 25.2264
rtibia 41.4012
rfoot -26.0622 -17.3949
rtoes 2.56677
lfemur -33.8333 5.54597 -21.1252
ltibia 32.0381
lfoot -5.62103 11.2154
ltoes -7.86939
193
root -0.983049 17.5475 5.52592 180.824 -3.15733 -177.173
lowerback 29.7324 -1.48419 3.37589
upperback 5.227 -1.99377 4.84158
thorax -10.3841 -1.65228 4.44792
lowerneck -13.4293 -3.85462 -1.13428
upperneck 21.4439 -3.89024 -2.20171
head 8.90496 -1.89883 -0.966987
rclavicle -4.69132e-014 2.06736e-014
rhumerus -4.62856 4.2742 -87.4071
rradius 79.1377
rwrist -16.516
rhand -19.8163 4.20531
rfingers 7.12502
rthumb 6.51715 -25.6744
lclavicle -4.69132e-014 2.06736e-014
lhumerus -8.57016 -15.9969 107.25
lradius 68.1202
lwrist 53.8716
lhand -16.3142 61.628
lfingers 7.12502
lthumb 9.89704 -91.3754
rfemur -10.1077 1.9131 25.5392
rtibia 41.3606
rfoot -25.9097 -17.4238
rtoes 0.90464
lfemur -33.5533 5.59432 -20.8193
ltibia 32.4181
lfoot -5.24857 10.2807
ltoes -8.05087
